<svg height="512pt" viewBox="-96 0 512 512" width="512pt" xmlns="http://www.w3.org/2000/svg"><path d="m319.199219 111.398438v-96.398438c0-8.285156-6.714844-15-15-15h-96.398438c-5.683593 0-10.875 3.210938-13.417969 8.292969l-44.054687 88.105469h-135.328125c-8.28125 0-15 6.714843-15 15v112.46875c0 8.28125 6.71875 15 15 15h64.097656l-77.511718 155.023437c-1.042969 2.085937-1.585938 4.378906-1.585938 6.710937v96.398438c0 8.285156 6.71875 15 15 15h96.398438c5.683593 0 10.878906-3.210938 13.417968-8.292969l44.054688-88.105469h135.328125c8.285156 0 15-6.71875 15-15v-112.46875c0-8.285156-6.714844-15-15-15h-64.09375l77.511719-155.023437c1.039062-2.085937 1.582031-4.378906 1.582031-6.710937zm0 0"/></svg>